HIERARCHY
ROOT joint_Root
{
	OFFSET 0.0 0.0 0.0
	CHANNELS 6 Xposition Yposition Zposition Zrotation Xrotation Yrotation 
	JOINT Hips
	{
		OFFSET 4.5925 91.4895 -427.239
		CHANNELS 6 Xposition Yposition Zposition Zrotation Xrotation Yrotation 
		JOINT Spine
		{
			OFFSET 15.7357 0.0 0.0
			CHANNELS 6 Xposition Yposition Zposition Zrotation Xrotation Yrotation 
			JOINT Chest
			{
				OFFSET 8.98455 -0.406207 0.0
				CHANNELS 6 Xposition Yposition Zposition Zrotation Xrotation Yrotation 
				JOINT Neck
				{
					OFFSET 16.3773 0.0 0.0
					CHANNELS 6 Xposition Yposition Zposition Zrotation Xrotation Yrotation 
					JOINT Head
					{
						OFFSET 6.45672 0.0 0.0
						CHANNELS 6 Xposition Yposition Zposition Zrotation Xrotation Yrotation 
						End Site
						{
							OFFSET 0.0 0.0 0.0
						}
					}
				}
				JOINT Shoulder_L
				{
					OFFSET 12.9942 -0.242716 4.98039
					CHANNELS 6 Xposition Yposition Zposition Zrotation Xrotation Yrotation 
					JOINT UpperArm_L
					{
						OFFSET 5.34809 0.0 0.0
						CHANNELS 6 Xposition Yposition Zposition Zrotation Xrotation Yrotation 
						JOINT LowerArm_L
						{
							OFFSET 24.3286 1.87007e-05 0.0
							CHANNELS 6 Xposition Yposition Zposition Zrotation Xrotation Yrotation 
							JOINT Hand_L
							{
								OFFSET 22.2916 0.0 0.0
								CHANNELS 6 Xposition Yposition Zposition Zrotation Xrotation Yrotation 
								End Site
								{
									OFFSET 0.0 0.0 0.0
								}
							}
						}
					}
				}
				JOINT Shoulder_R
				{
					OFFSET 12.9945 -0.242716 -4.98039
					CHANNELS 6 Xposition Yposition Zposition Zrotation Xrotation Yrotation 
					JOINT UpperArm_R
					{
						OFFSET -5.34813 0.0 0.0
						CHANNELS 6 Xposition Yposition Zposition Zrotation Xrotation Yrotation 
						JOINT LowerArm_R
						{
							OFFSET -24.3289 0.000322201 0.0
							CHANNELS 6 Xposition Yposition Zposition Zrotation Xrotation Yrotation 
							JOINT Hand_R
							{
								OFFSET -22.2915 -0.000108084 0.0
								CHANNELS 6 Xposition Yposition Zposition Zrotation Xrotation Yrotation 
								End Site
								{
									OFFSET 0.0 0.0 0.0
								}
							}
						}
					}
				}
			}
		}
		JOINT UpperLeg_L
		{
			OFFSET -2.19248 -6.46944 0.0
			CHANNELS 6 Xposition Yposition Zposition Zrotation Xrotation Yrotation 
			JOINT LowerLeg_L
			{
				OFFSET 39.0811 0.0 -1.23785e-05
				CHANNELS 6 Xposition Yposition Zposition Zrotation Xrotation Yrotation 
				JOINT Foot_L
				{
					OFFSET 40.9854 0.0 -1.26872e-05
					CHANNELS 6 Xposition Yposition Zposition Zrotation Xrotation Yrotation 
					JOINT Toes_L
					{
						OFFSET 11.7543 0.0 0.0
						CHANNELS 6 Xposition Yposition Zposition Zrotation Xrotation Yrotation 
						End Site
						{
							OFFSET 0.0 0.0 0.0
						}
					}
				}
			}
		}
		JOINT UpperLeg_R
		{
			OFFSET -2.19251 6.46944 0.0
			CHANNELS 6 Xposition Yposition Zposition Zrotation Xrotation Yrotation 
			JOINT LowerLeg_R
			{
				OFFSET -39.0811 -0.00228153 -0.0401928
				CHANNELS 6 Xposition Yposition Zposition Zrotation Xrotation Yrotation 
				JOINT Foot_R
				{
					OFFSET -40.9854 0.0 0.0
					CHANNELS 6 Xposition Yposition Zposition Zrotation Xrotation Yrotation 
					JOINT Toes_R
					{
						OFFSET -11.7543 0.0 0.0
						CHANNELS 6 Xposition Yposition Zposition Zrotation Xrotation Yrotation 
						End Site
						{
							OFFSET 0.0 0.0 0.0
						}
					}
				}
			}
		}
	}
}
MOTION
Frames:	4
Frame Time:	0.0333333
0.000000 0.000000 0.000000 0.000000 0.000000 -0.000000 5.765030 91.374200 -0.119583 88.872700 -15.860900 3.116140 15.735700 0.000005 -0.000001 69.123500 85.035000 -67.447400 8.984550 -0.406207 -0.000000 1.570670 -3.627310 3.399850 16.377300 -0.000001 -0.000001 4.601800 -0.904963 0.316455 6.456720 -0.000001 -0.000000 -2.263690 -1.562240 8.271550 12.994200 -0.242716 4.980390 -85.293900 -9.701220 -63.963100 5.348090 -0.000007 -0.000001 -46.673700 -57.915700 -91.312500 24.328600 0.000019 0.000005 18.135500 13.121300 -55.274500 22.291600 -0.000001 0.000005 23.046100 5.184990 3.092850 12.994500 -0.242716 -4.980390 87.330700 10.423100 -75.549400 -5.348130 -0.000001 -0.000004 -56.821600 23.420300 -6.997830 -24.328900 0.000322 -0.000009 -1.187240 -1.995680 -30.734300 -22.291500 -0.000108 -0.000004 16.769800 5.423860 -3.729490 -2.192480 -6.469440 -0.000000 -179.253000 -21.639100 -4.069060 39.081100 -0.000007 -0.000012 -0.106916 0.210952 26.877200 40.985400 -0.000006 -0.000013 2.681070 0.094566 -70.143900 11.754300 -0.000000 0.000003 -0.000261 -0.002314 -16.664200 -2.192510 6.469440 -0.000001 173.693000 14.833100 173.356000 -39.081100 -0.002282 -0.040193 -0.050816 0.110203 26.158000 -40.985400 0.000008 0.000006 2.655130 20.750400 -66.962400 -11.754300 -0.000006 -0.000006 -0.001621 -0.023864 -17.543500
0.000000 0.000000 0.000000 0.000000 0.000000 -0.000000 5.602590 91.387900 -0.219878 88.897300 -14.973600 3.156660 15.735700 0.000005 -0.000001 70.150600 85.010600 -68.579100 8.984550 -0.406207 -0.000000 1.672610 -3.469940 3.191590 16.377300 -0.000001 -0.000001 4.440470 -1.239820 0.421173 6.456720 -0.000001 -0.000000 -2.277220 -1.927970 8.450070 12.994200 -0.242716 4.980390 -85.699100 -8.978850 -64.271600 5.348090 -0.000007 -0.000001 -45.354100 -56.351100 -87.143400 24.328600 0.000019 0.000005 18.723600 11.074200 -60.459400 22.291600 -0.000001 0.000005 23.605800 5.183610 3.126860 12.994500 -0.242716 -4.980390 87.325000 10.445800 -75.549600 -5.348130 -0.000001 -0.000004 -56.884200 23.558000 -7.211480 -24.328900 0.000322 -0.000009 -1.371780 -2.284100 -30.979700 -22.291500 -0.000108 -0.000004 16.624400 5.421460 -3.648130 -2.192480 -6.469440 -0.000000 -179.146000 -21.183900 -4.179740 39.081100 -0.000007 -0.000012 -0.105474 0.207447 26.950600 40.985400 -0.000006 -0.000013 2.708350 0.587383 -70.042900 11.754300 -0.000000 0.000003 -0.000254 -0.002266 -16.662400 -2.192510 6.469440 -0.000001 173.716000 15.494600 173.531000 -39.081100 -0.002282 -0.040193 -0.059022 0.127073 26.129000 -40.985400 0.000008 0.000006 2.515500 20.538200 -66.922600 -11.754300 -0.000006 -0.000006 -0.001456 -0.021685 -17.454900
0.000000 0.000000 0.000000 0.000000 0.000000 -0.000000 5.419540 91.399900 -0.296053 88.968400 -14.138000 3.275450 15.735700 0.000005 -0.000001 71.981400 84.976500 -70.518200 8.984550 -0.406207 -0.000000 1.833320 -3.181640 2.975250 16.377300 -0.000001 -0.000001 4.290420 -1.530290 0.556319 6.456720 -0.000001 -0.000000 -2.357570 -2.226380 8.351530 12.994200 -0.242716 4.980390 -86.189100 -8.151270 -64.836200 5.348090 -0.000007 -0.000001 -43.551900 -54.249000 -81.492500 24.328600 0.000019 0.000005 19.369900 8.555170 -67.064800 22.291600 -0.000001 0.000005 23.840500 5.179770 3.221370 12.994500 -0.242716 -4.980390 87.329300 10.493000 -75.633200 -5.348130 -0.000001 -0.000004 -56.981400 23.791200 -7.370990 -24.328900 0.000322 -0.000009 -1.534980 -2.557520 -30.968000 -22.291500 -0.000108 -0.000004 16.579200 5.421340 -3.644110 -2.192480 -6.469440 -0.000000 -179.028000 -20.818400 -4.164670 39.081100 -0.000007 -0.000012 -0.107632 0.211432 26.979100 40.985400 -0.000006 -0.000013 2.714870 1.089120 -69.944600 11.754300 -0.000000 0.000003 -0.000258 -0.002290 -16.663300 -2.192510 6.469440 -0.000001 173.666000 16.188700 173.767000 -39.081100 -0.002282 -0.040193 -0.066743 0.142791 26.132400 -40.985400 0.000008 0.000006 2.386540 20.421500 -66.910500 -11.754300 -0.000006 -0.000006 -0.001412 -0.021094 -17.430900
0.000000 0.000000 0.000000 0.000000 0.000000 -0.000000 5.214690 91.403500 -0.343452 89.008400 -13.256600 3.388160 15.735700 0.000005 -0.000001 73.444300 84.928800 -72.072200 8.984550 -0.406207 -0.000000 1.995310 -2.957220 2.793650 16.377300 -0.000001 -0.000001 4.044970 -1.729690 0.734902 6.456720 -0.000001 -0.000000 -2.350880 -2.376590 8.132300 12.994200 -0.242716 4.980390 -86.709100 -7.129330 -65.141200 5.348090 -0.000007 -0.000001 -40.980000 -51.138200 -74.551700 24.328600 0.000019 0.000005 20.039500 5.888380 -74.290700 22.291600 -0.000001 0.000005 24.265600 5.176000 3.313870 12.994500 -0.242716 -4.980390 87.334200 10.496000 -75.662500 -5.348130 -0.000001 -0.000004 -56.985900 24.502700 -7.802460 -24.328900 0.000322 -0.000009 -1.538690 -2.615910 -30.461300 -22.291500 -0.000108 -0.000004 16.366700 5.419180 -3.571360 -2.192480 -6.469440 -0.000000 -178.871000 -20.461100 -4.153240 39.081100 -0.000007 -0.000012 -0.105340 0.206229 27.057700 40.985400 -0.000006 -0.000013 2.728220 1.646590 -69.892800 11.754300 -0.000000 0.000003 -0.000257 -0.002288 -16.663200 -2.192510 6.469440 -0.000001 173.653000 16.935100 174.019000 -39.081100 -0.002282 -0.040193 -0.068509 0.145889 26.210200 -40.985400 0.000008 0.000006 2.557330 20.267000 -67.085500 -11.754300 -0.000006 -0.000006 -0.001524 -0.022586 -17.491500
